<svg xmlns="http://www.w3.org/2000/svg" viewBox="0 0 934 467" width="700" height="350">
	<style>
		tspan { white-space:pre }
		.shp0 { fill: #f2f2f2 } 
	</style>
	<path id="letters" fill-rule="evenodd" class="shp0" d="M53.69 277.22C52.09 268.08 51.74 251.52 51.33 166.14L50.85 65.8L204.27 65.8L204.27 124.31L123.53 124.31L123.53 155.87L202.99 156.49L191.16 182.52L179.33 208.56L123.19 208.56L123.89 247.47C125.03 310.54 130.69 350.05 144.76 393.23C146.09 397.29 146.98 400.79 146.76 401.01C146.53 401.23 141.05 397.91 134.59 393.62C83.28 359.65 63 330.47 53.69 277.22ZM173.04 285.5C173.9 283.4 194.02 233.11 217.75 173.73L260.91 65.77L339.3 66.39L383.53 176.96C407.86 237.77 427.77 287.93 427.77 288.41C427.77 288.9 409.37 289.3 386.89 289.3L346.02 289.3L344.25 283.16C343.28 279.78 341.04 271.88 339.28 265.6L336.07 254.19L264.17 254.19L261.79 262.09C260.47 266.44 258.19 274.34 256.71 279.65L254.02 289.3L171.47 289.3L173.04 285.5ZM320.84 204.17C317.49 192.77 300.87 138.82 300.59 138.45C300.38 138.18 299.97 138.21 299.67 138.51C298.95 139.22 279.16 203.39 279.16 204.99C279.16 205.8 286.35 206.22 300.3 206.22C319.88 206.22 321.4 206.07 320.84 204.17L320.84 204.17ZM435.96 258.91L435.96 65.76L504.36 66.39L539.05 125.86C558.13 158.57 574.33 185.92 575.06 186.65C576.04 187.62 576.38 172.16 576.38 126.88L576.38 65.8L644.25 65.8L644.25 289.3L610.02 289.26L575.79 289.22L540.1 230.46L504.41 171.7L503.81 289.3L451.19 289.3L435.96 258.91ZM797.84 400.78C798.16 399.64 800.35 392.43 802.7 384.77C808.81 364.84 810.26 352.86 810.7 318.77L811.09 289.14L789.98 289.94C741.97 291.76 712.9 284.26 691.43 264.54C681.04 254.99 676.05 247.92 671.72 236.57C658.81 202.8 656.16 162.76 664.84 132.8C669.88 115.42 677.09 103.05 689.24 90.96C701.52 78.74 712.37 72.08 729.48 66.23C747.75 59.99 759.9 58.26 785.25 58.27C816.19 58.28 840.28 62.46 853.31 70.08C868.55 78.98 877.27 98.04 878.54 125.19L878.94 133.67L826.17 133.67L824 127.53C820.41 117.39 818.58 115.64 807.81 112.08C790.06 106.21 770.95 106.91 755.75 113.99C743.24 119.81 730.71 137.03 726.75 153.85C724.53 163.24 724.53 181.33 726.75 190.73C728.69 198.97 734.19 210.58 739.09 216.81C743.2 222.02 751.64 226.67 761.36 229.07C769.8 231.15 802.37 232.73 810.81 231.47L816.26 230.65L816.26 194.52L770.62 194.52L770.62 155.9L879.45 155.9L879.42 204.76C879.37 298.08 875.36 336.49 863.57 356.61C854.78 371.62 838.38 383.87 808.8 397.53C799.55 401.8 797.36 402.45 797.84 400.78L797.84 400.78Z" />
</svg>